<svg width="137" height="28" viewBox="0 0 137 28" fill="none" xmlns="http://www.w3.org/2000/svg">
<path d="M13.0982 8.75227C14.3675 9.89098 15.0024 11.5888 15.0024 13.8452V23.9683H12.0409V21.7542C11.5205 22.5341 10.777 23.1303 9.81165 23.541C8.84634 23.9522 7.70143 24.1582 6.37872 24.1582C4.44764 24.1582 2.90134 23.7051 1.74116 22.7978C0.580536 21.8917 0 20.6997 0 19.2236C0 17.7471 0.553598 16.5608 1.65989 15.6644C2.76619 14.7683 4.52352 14.3197 6.93142 14.3197H11.8779V13.7187C11.8779 12.4115 11.4873 11.4094 10.7065 10.7137C9.92524 10.018 8.7754 9.6697 7.25693 9.6697C6.23684 9.6697 5.23965 9.83337 4.2631 10.1603C3.28701 10.4876 2.46223 10.9249 1.7901 11.4731L0.488495 9.19527C1.37793 8.49957 2.44113 7.96709 3.67718 7.59786C4.91413 7.22905 6.22606 7.04443 7.61522 7.04443C10.0016 7.044 11.8289 7.61357 13.0982 8.75227ZM9.9908 21.0423C10.8582 20.5256 11.4873 19.7923 11.8779 18.8439V16.5032H7.06207C4.41486 16.5032 3.09215 17.3683 3.09215 19.0971C3.09215 19.9407 3.42799 20.605 4.10057 21.0899C4.77315 21.5757 5.70614 21.8179 6.89909 21.8179C8.09204 21.8179 9.12291 21.5591 9.9908 21.0423Z" fill="#00264D"/>
<path d="M35.1737 7.20239L27.6236 23.9683H24.4344L16.8848 7.20239H20.139L26.0616 20.6464L32.1143 7.20239H35.1737Z" fill="#00264D"/>
<path d="M52.7621 16.5975H38.7695C38.9648 18.074 39.6316 19.2603 40.7707 20.1563C41.9102 21.0533 43.3258 21.5011 45.0176 21.5011C47.0789 21.5011 48.7388 20.8263 49.9968 19.4768L51.7214 21.4378C50.9406 22.3233 49.9694 22.9985 48.8088 23.4625C47.6482 23.9264 46.3524 24.1582 44.9202 24.1582C43.0982 24.1582 41.4814 23.7946 40.0716 23.0666C38.6609 22.3395 37.5708 21.3217 36.8007 20.0141C36.0307 18.7069 35.6455 17.2304 35.6455 15.5854C35.6455 13.9622 36.0204 12.4966 36.7684 11.1881C37.5164 9.88094 38.5468 8.86313 39.8597 8.13557C41.1721 7.40844 42.6533 7.04443 44.3019 7.04443C45.9506 7.04443 47.4206 7.408 48.7114 8.13557C50.0018 8.86357 51.0111 9.88094 51.738 11.1881C52.4645 12.4966 52.8277 13.9936 52.8277 15.6805C52.8272 15.9123 52.8052 16.2178 52.7621 16.5975ZM40.5426 10.9345C39.5342 11.8201 38.9428 12.9806 38.7695 14.4144H49.8339C49.6596 13.0016 49.0692 11.8467 48.0599 10.9502C47.0511 10.0542 45.7984 9.60554 44.301 9.60554C42.8041 9.60641 41.5514 10.049 40.5426 10.9345Z" fill="#00264D"/>
<path d="M70.6347 8.8945C71.9251 10.1284 72.5708 11.937 72.5708 14.3196V23.9683H69.4467V14.6679C69.4467 13.0439 69.0449 11.8205 68.2426 10.9986C67.4393 10.1759 66.2899 9.76479 64.793 9.76479C63.1008 9.76479 61.7664 10.2445 60.7908 11.2038C59.8142 12.1635 59.3262 13.5397 59.3262 15.3322V23.9683H56.2021V7.20238H59.1955V9.73293C59.8246 8.86788 60.6767 8.2036 61.7507 7.73965C62.8247 7.27614 64.045 7.04395 65.4117 7.04395C67.6023 7.04395 69.3435 7.66065 70.6347 8.8945Z" fill="#00264D"/>
<path d="M86.115 22.9871C85.6593 23.3668 85.0953 23.6571 84.4232 23.8574C83.7497 24.0577 83.056 24.1581 82.3404 24.1581C80.6046 24.1581 79.2594 23.7051 78.3049 22.7977C77.3504 21.8916 76.8735 20.5945 76.8735 18.9071V3.53223H79.9976V7.20192H84.944V9.70061H79.9976V18.7797C79.9976 19.6871 80.2306 20.3828 80.6975 20.8677C81.1636 21.3535 81.8312 21.5957 82.6991 21.5957C83.6532 21.5957 84.4668 21.3316 85.1398 20.8048L86.115 22.9871Z" fill="#00264D"/>
<path d="M89.3848 7.20239H92.5088V23.9683H89.3848V7.20239Z" fill="#00264D"/>
<path d="M132.152 7.80294C133.214 7.29709 134.505 7.04395 136.024 7.04395V9.98607C135.851 9.96556 135.612 9.95465 135.309 9.95465C133.617 9.95465 132.286 10.4443 131.322 11.4255C130.356 12.4062 129.874 13.8037 129.874 15.6167V23.9683H126.75V7.20238H129.743V10.0175C130.286 9.0477 131.089 8.30922 132.152 7.80294Z" fill="#00264D"/>
<path d="M109.662 15.5466C110.629 15.5466 111.412 14.7849 111.412 13.8453C111.412 12.9057 110.629 12.144 109.662 12.144C108.696 12.144 107.912 12.9057 107.912 13.8453C107.912 14.7849 108.696 15.5466 109.662 15.5466Z" fill="#FF3300"/>
<path d="M109.662 10.2061C110.435 10.2061 111.062 9.59682 111.062 8.84523C111.062 8.09365 110.435 7.48438 109.662 7.48438C108.888 7.48438 108.262 8.09365 108.262 8.84523C108.262 9.59682 108.888 10.2061 109.662 10.2061Z" fill="#FF3300"/>
<path d="M114.746 15.2061C115.519 15.2061 116.146 14.5968 116.146 13.8452C116.146 13.0937 115.519 12.4844 114.746 12.4844C113.972 12.4844 113.346 13.0937 113.346 13.8452C113.346 14.5968 113.972 15.2061 114.746 15.2061Z" fill="#FF3300"/>
<path d="M113.928 10.5364C114.685 10.5364 115.299 9.94004 115.299 9.20437C115.299 8.4687 114.685 7.87231 113.928 7.87231C113.172 7.87231 112.558 8.4687 112.558 9.20437C112.558 9.94004 113.172 10.5364 113.928 10.5364Z" fill="#FF3300"/>
<path d="M109.662 5.94815C110.305 5.94815 110.826 5.44127 110.826 4.816C110.826 4.19072 110.305 3.68384 109.662 3.68384C109.019 3.68384 108.497 4.19072 108.497 4.816C108.497 5.44127 109.019 5.94815 109.662 5.94815Z" fill="#FF3300"/>
<path d="M109.662 2.07021C110.116 2.07021 110.484 1.71242 110.484 1.27107C110.484 0.829713 110.116 0.471924 109.662 0.471924C109.208 0.471924 108.84 0.829713 108.84 1.27107C108.84 1.71242 109.208 2.07021 109.662 2.07021Z" fill="#FF3300"/>
<path d="M122.597 14.6444C123.051 14.6444 123.419 14.2866 123.419 13.8453C123.419 13.4039 123.051 13.0461 122.597 13.0461C122.143 13.0461 121.775 13.4039 121.775 13.8453C121.775 14.2866 122.143 14.6444 122.597 14.6444Z" fill="#FF3300"/>
<path d="M109.662 27.2187C110.116 27.2187 110.484 26.8609 110.484 26.4195C110.484 25.9782 110.116 25.6204 109.662 25.6204C109.208 25.6204 108.84 25.9782 108.84 26.4195C108.84 26.8609 109.208 27.2187 109.662 27.2187Z" fill="#FF3300"/>
<path d="M96.7269 14.6444C97.1809 14.6444 97.549 14.2866 97.549 13.8453C97.549 13.4039 97.1809 13.0461 96.7269 13.0461C96.2728 13.0461 95.9048 13.4039 95.9048 13.8453C95.9048 14.2866 96.2728 14.6444 96.7269 14.6444Z" fill="#FF3300"/>
<path d="M97.5446 19.0771C98.0272 19.0771 98.4183 18.6968 98.4183 18.2278C98.4183 17.7587 98.0272 17.3784 97.5446 17.3784C97.0621 17.3784 96.6709 17.7587 96.6709 18.2278C96.6709 18.6968 97.0621 19.0771 97.5446 19.0771Z" fill="#FF3300"/>
<path d="M97.5446 10.3149C98.0272 10.3149 98.4183 9.93462 98.4183 9.46555C98.4183 8.99647 98.0272 8.61621 97.5446 8.61621C97.0621 8.61621 96.6709 8.99647 96.6709 9.46555C96.6709 9.93462 97.0621 10.3149 97.5446 10.3149Z" fill="#FF3300"/>
<path d="M121.779 10.3122C122.262 10.3122 122.653 9.93194 122.653 9.46286C122.653 8.99379 122.262 8.61353 121.779 8.61353C121.297 8.61353 120.906 8.99379 120.906 9.46286C120.906 9.93194 121.297 10.3122 121.779 10.3122Z" fill="#FF3300"/>
<path d="M113.274 2.3813C113.672 2.3813 113.994 2.06826 113.994 1.68211C113.994 1.29595 113.672 0.98291 113.274 0.98291C112.877 0.98291 112.555 1.29595 112.555 1.68211C112.555 2.06826 112.877 2.3813 113.274 2.3813Z" fill="#FF3300"/>
<path d="M106.125 2.3813C106.522 2.3813 106.844 2.06826 106.844 1.68211C106.844 1.29595 106.522 0.98291 106.125 0.98291C105.728 0.98291 105.406 1.29595 105.406 1.68211C105.406 2.06826 105.728 2.3813 106.125 2.3813Z" fill="#FF3300"/>
<path d="M113.199 26.708C113.596 26.708 113.918 26.3949 113.918 26.0088C113.918 25.6226 113.596 25.3096 113.199 25.3096C112.802 25.3096 112.479 25.6226 112.479 26.0088C112.479 26.3949 112.802 26.708 113.199 26.708Z" fill="#FF3300"/>
<path d="M116.381 25.4659C116.797 25.4659 117.135 25.1378 117.135 24.733C117.135 24.3283 116.797 24.0002 116.381 24.0002C115.964 24.0002 115.627 24.3283 115.627 24.733C115.627 25.1378 115.964 25.4659 116.381 25.4659Z" fill="#FF3300"/>
<path d="M119.825 22.6331C120.241 22.6331 120.578 22.305 120.578 21.9003C120.578 21.4956 120.241 21.1675 119.825 21.1675C119.408 21.1675 119.071 21.4956 119.071 21.9003C119.071 22.305 119.408 22.6331 119.825 22.6331Z" fill="#FF3300"/>
<path d="M116.404 3.69046C116.821 3.69046 117.158 3.36237 117.158 2.95766C117.158 2.55294 116.821 2.22485 116.404 2.22485C115.988 2.22485 115.65 2.55294 115.65 2.95766C115.65 3.36237 115.988 3.69046 116.404 3.69046Z" fill="#FF3300"/>
<path d="M119.753 6.52103C120.169 6.52103 120.507 6.19294 120.507 5.78822C120.507 5.38351 120.169 5.05542 119.753 5.05542C119.337 5.05542 118.999 5.38351 118.999 5.78822C118.999 6.19294 119.337 6.52103 119.753 6.52103Z" fill="#FF3300"/>
<path d="M102.92 25.4659C103.336 25.4659 103.674 25.1378 103.674 24.733C103.674 24.3283 103.336 24.0002 102.92 24.0002C102.504 24.0002 102.166 24.3283 102.166 24.733C102.166 25.1378 102.504 25.4659 102.92 25.4659Z" fill="#FF3300"/>
<path d="M99.5707 22.6355C99.9871 22.6355 100.325 22.3074 100.325 21.9027C100.325 21.498 99.9871 21.1699 99.5707 21.1699C99.1544 21.1699 98.8169 21.498 98.8169 21.9027C98.8169 22.3074 99.1544 22.6355 99.5707 22.6355Z" fill="#FF3300"/>
<path d="M102.943 3.69046C103.36 3.69046 103.697 3.36237 103.697 2.95766C103.697 2.55294 103.36 2.22485 102.943 2.22485C102.527 2.22485 102.189 2.55294 102.189 2.95766C102.189 3.36237 102.527 3.69046 102.943 3.69046Z" fill="#FF3300"/>
<path d="M99.4995 6.52298C99.9158 6.52298 100.253 6.19489 100.253 5.79018C100.253 5.38546 99.9158 5.05737 99.4995 5.05737C99.0831 5.05737 98.7456 5.38546 98.7456 5.79018C98.7456 6.19489 99.0831 6.52298 99.4995 6.52298Z" fill="#FF3300"/>
<path d="M106.05 26.708C106.447 26.708 106.769 26.3949 106.769 26.0088C106.769 25.6226 106.447 25.3096 106.05 25.3096C105.653 25.3096 105.331 25.6226 105.331 26.0088C105.331 26.3949 105.653 26.708 106.05 26.708Z" fill="#FF3300"/>
<path d="M121.779 19.0744C122.262 19.0744 122.653 18.6941 122.653 18.2251C122.653 17.756 122.262 17.3757 121.779 17.3757C121.297 17.3757 120.906 17.756 120.906 18.2251C120.906 18.6941 121.297 19.0744 121.779 19.0744Z" fill="#FF3300"/>
<path d="M118.972 14.9775C119.616 14.9775 120.137 14.4706 120.137 13.8453C120.137 13.22 119.616 12.7131 118.972 12.7131C118.329 12.7131 117.808 13.22 117.808 13.8453C117.808 14.4706 118.329 14.9775 118.972 14.9775Z" fill="#FF3300"/>
<path d="M109.662 23.6911C110.305 23.6911 110.826 23.1842 110.826 22.5589C110.826 21.9336 110.305 21.4268 109.662 21.4268C109.019 21.4268 108.497 21.9336 108.497 22.5589C108.497 23.1842 109.019 23.6911 109.662 23.6911Z" fill="#FF3300"/>
<path d="M100.698 14.9775C101.342 14.9775 101.863 14.4706 101.863 13.8453C101.863 13.22 101.342 12.7131 100.698 12.7131C100.055 12.7131 99.5337 13.22 99.5337 13.8453C99.5337 14.4706 100.055 14.9775 100.698 14.9775Z" fill="#FF3300"/>
<path d="M106.125 6.37796C106.692 6.37796 107.153 5.93068 107.153 5.37892C107.153 4.82717 106.692 4.37988 106.125 4.37988C105.557 4.37988 105.097 4.82717 105.097 5.37892C105.097 5.93068 105.557 6.37796 106.125 6.37796Z" fill="#FF3300"/>
<path d="M106.125 23.3128C106.692 23.3128 107.153 22.8655 107.153 22.3137C107.153 21.762 106.692 21.3147 106.125 21.3147C105.557 21.3147 105.097 21.762 105.097 22.3137C105.097 22.8655 105.557 23.3128 106.125 23.3128Z" fill="#FF3300"/>
<path d="M101.378 19.3562C101.946 19.3562 102.406 18.9089 102.406 18.3572C102.406 17.8054 101.946 17.3582 101.378 17.3582C100.811 17.3582 100.351 17.8054 100.351 18.3572C100.351 18.9089 100.811 19.3562 101.378 19.3562Z" fill="#FF3300"/>
<path d="M113.205 6.37577C113.773 6.37577 114.233 5.92848 114.233 5.37673C114.233 4.82497 113.773 4.37769 113.205 4.37769C112.638 4.37769 112.178 4.82497 112.178 5.37673C112.178 5.92848 112.638 6.37577 113.205 6.37577Z" fill="#FF3300"/>
<path d="M117.945 10.3323C118.513 10.3323 118.973 9.88502 118.973 9.33327C118.973 8.78151 118.513 8.33423 117.945 8.33423C117.378 8.33423 116.917 8.78151 116.917 9.33327C116.917 9.88502 117.378 10.3323 117.945 10.3323Z" fill="#FF3300"/>
<path d="M117.975 19.3562C118.543 19.3562 119.003 18.9089 119.003 18.3572C119.003 17.8054 118.543 17.3582 117.975 17.3582C117.407 17.3582 116.947 17.8054 116.947 18.3572C116.947 18.9089 117.407 19.3562 117.975 19.3562Z" fill="#FF3300"/>
<path d="M113.199 23.3106C113.766 23.3106 114.226 22.8633 114.226 22.3115C114.226 21.7598 113.766 21.3125 113.199 21.3125C112.631 21.3125 112.171 21.7598 112.171 22.3115C112.171 22.8633 112.631 23.3106 113.199 23.3106Z" fill="#FF3300"/>
<path d="M101.35 10.3323C101.917 10.3323 102.377 9.88502 102.377 9.33327C102.377 8.78151 101.917 8.33423 101.35 8.33423C100.782 8.33423 100.322 8.78151 100.322 9.33327C100.322 9.88502 100.782 10.3323 101.35 10.3323Z" fill="#FF3300"/>
<path d="M102.848 6.48111C103.34 6.48111 103.739 6.09343 103.739 5.61519C103.739 5.13695 103.34 4.74927 102.848 4.74927C102.356 4.74927 101.958 5.13695 101.958 5.61519C101.958 6.09343 102.356 6.48111 102.848 6.48111Z" fill="#FF3300"/>
<path d="M102.835 22.9438C103.327 22.9438 103.726 22.5561 103.726 22.0778C103.726 21.5996 103.327 21.2119 102.835 21.2119C102.343 21.2119 101.944 21.5996 101.944 22.0778C101.944 22.5561 102.343 22.9438 102.835 22.9438Z" fill="#FF3300"/>
<path d="M116.489 6.47891C116.981 6.47891 117.38 6.09123 117.38 5.61299C117.38 5.13476 116.981 4.74707 116.489 4.74707C115.997 4.74707 115.598 5.13476 115.598 5.61299C115.598 6.09123 115.997 6.47891 116.489 6.47891Z" fill="#FF3300"/>
<path d="M116.475 22.9413C116.967 22.9413 117.366 22.5536 117.366 22.0754C117.366 21.5972 116.967 21.2095 116.475 21.2095C115.983 21.2095 115.584 21.5972 115.584 22.0754C115.584 22.5536 115.983 22.9413 116.475 22.9413Z" fill="#FF3300"/>
<path d="M113.987 19.8155C114.743 19.8155 115.357 19.2191 115.357 18.4834C115.357 17.7477 114.743 17.1514 113.987 17.1514C113.23 17.1514 112.616 17.7477 112.616 18.4834C112.616 19.2191 113.23 19.8155 113.987 19.8155Z" fill="#FF3300"/>
<path d="M105.395 19.8186C106.152 19.8186 106.765 19.2223 106.765 18.4866C106.765 17.7509 106.152 17.1545 105.395 17.1545C104.638 17.1545 104.025 17.7509 104.025 18.4866C104.025 19.2223 104.638 19.8186 105.395 19.8186Z" fill="#FF3300"/>
<path d="M105.338 10.5394C106.094 10.5394 106.708 9.94297 106.708 9.2073C106.708 8.47162 106.094 7.87524 105.338 7.87524C104.581 7.87524 103.967 8.47162 103.967 9.2073C103.967 9.94297 104.581 10.5394 105.338 10.5394Z" fill="#FF3300"/>
<path d="M109.662 19.9519C110.435 19.9519 111.062 19.3427 111.062 18.5911C111.062 17.8395 110.435 17.2302 109.662 17.2302C108.888 17.2302 108.262 17.8395 108.262 18.5911C108.262 19.3427 108.888 19.9519 109.662 19.9519Z" fill="#FF3300"/>
<path d="M104.78 15.2061C105.553 15.2061 106.18 14.5968 106.18 13.8452C106.18 13.0937 105.553 12.4844 104.78 12.4844C104.007 12.4844 103.38 13.0937 103.38 13.8452C103.38 14.5968 104.007 15.2061 104.78 15.2061Z" fill="#FF3300"/>
<path d="M90.9461 3.99616C92.0813 3.99616 93.0015 3.10159 93.0015 1.99808C93.0015 0.894571 92.0813 0 90.9461 0C89.8109 0 88.8906 0.894571 88.8906 1.99808C88.8906 3.10159 89.8109 3.99616 90.9461 3.99616Z" fill="#00264D"/>
</svg>
