<svg width="24" height="24" viewBox="0 0 24 24" fill="none" xmlns="http://www.w3.org/2000/svg">
<path d="M10.3354 5.91746C10.7583 5.55706 10.9697 5.37686 11.1908 5.27119C11.7022 5.02679 12.2966 5.02679 12.808 5.27119C13.0291 5.37686 13.2405 5.55706 13.6634 5.91746C13.8317 6.0609 13.9159 6.13262 14.0058 6.19286C14.2118 6.33095 14.4432 6.4268 14.6865 6.47484C14.7927 6.4958 14.9029 6.50459 15.1233 6.52218C15.6772 6.56638 15.9542 6.58848 16.1852 6.67009C16.7196 6.85885 17.1399 7.27919 17.3287 7.81359C17.4103 8.04464 17.4324 8.32157 17.4766 8.87545C17.4942 9.0959 17.503 9.20612 17.524 9.31227C17.572 9.55561 17.6678 9.787 17.8059 9.99303C17.8662 10.0829 17.9379 10.1671 18.0813 10.3354C18.4417 10.7583 18.6219 10.9697 18.7276 11.1908C18.972 11.7022 18.972 12.2966 18.7276 12.808C18.6219 13.0291 18.4417 13.2405 18.0813 13.6634C17.9379 13.8317 17.8662 13.9159 17.8059 14.0058C17.6678 14.2118 17.572 14.4432 17.524 14.6865C17.503 14.7927 17.4942 14.9029 17.4766 15.1233C17.4324 15.6772 17.4103 15.9542 17.3287 16.1852C17.1399 16.7196 16.7196 17.1399 16.1852 17.3287C15.9542 17.4103 15.6772 17.4324 15.1233 17.4766C14.9029 17.4942 14.7927 17.503 14.6865 17.524C14.4432 17.572 14.2118 17.6678 14.0058 17.8059C13.9159 17.8662 13.8317 17.9379 13.6634 18.0813C13.2405 18.4417 13.0291 18.6219 12.808 18.7276C12.2966 18.972 11.7022 18.972 11.1908 18.7276C10.9697 18.6219 10.7583 18.4417 10.3354 18.0813C10.1671 17.9379 10.0829 17.8662 9.99303 17.8059C9.787 17.6678 9.55561 17.572 9.31227 17.524C9.20612 17.503 9.0959 17.4942 8.87545 17.4766C8.32157 17.4324 8.04464 17.4103 7.81359 17.3287C7.27919 17.1399 6.85885 16.7196 6.67009 16.1852C6.58848 15.9542 6.56638 15.6772 6.52218 15.1233C6.50459 14.9029 6.4958 14.7927 6.47484 14.6865C6.4268 14.4432 6.33095 14.2118 6.19286 14.0058C6.13262 13.9159 6.0609 13.8317 5.91746 13.6634C5.55706 13.2405 5.37686 13.0291 5.27119 12.808C5.02679 12.2966 5.02679 11.7022 5.27119 11.1908C5.37686 10.9697 5.55706 10.7583 5.91746 10.3354C6.0609 10.1671 6.13262 10.0829 6.19286 9.99303C6.33095 9.787 6.4268 9.55561 6.47484 9.31227C6.4958 9.20612 6.50459 9.0959 6.52218 8.87545C6.56638 8.32157 6.58848 8.04464 6.67009 7.81359C6.85885 7.27919 7.27919 6.85885 7.81359 6.67009C8.04464 6.58848 8.32157 6.56638 8.87545 6.52218C9.0959 6.50459 9.20612 6.4958 9.31227 6.47484C9.55561 6.4268 9.787 6.33095 9.99303 6.19286C10.0829 6.13262 10.1671 6.0609 10.3354 5.91746Z" stroke="#026939" stroke-width="1.5"/>
<path d="M9.375 12.375L10.875 13.875L14.625 10.125" stroke="#026939" stroke-width="1.5" stroke-linecap="round" stroke-linejoin="round"/>
</svg>
