<svg width="24" height="24" viewBox="0 0 24 24" fill="none" xmlns="http://www.w3.org/2000/svg">
<path d="M10.3354 5.91844C10.7583 5.55804 10.9697 5.37784 11.1908 5.27217C11.7022 5.02777 12.2966 5.02777 12.808 5.27217C13.0291 5.37784 13.2405 5.55804 13.6634 5.91844C13.8317 6.06187 13.9159 6.13359 14.0058 6.19384C14.2118 6.33193 14.4432 6.42777 14.6865 6.47582C14.7927 6.49677 14.9029 6.50557 15.1233 6.52316C15.6772 6.56736 15.9542 6.58946 16.1852 6.67107C16.7196 6.85982 17.1399 7.28017 17.3287 7.81456C17.4103 8.04561 17.4324 8.32255 17.4766 8.87643C17.4942 9.09687 17.503 9.2071 17.524 9.31325C17.572 9.55659 17.6678 9.78797 17.8059 9.99401C17.8662 10.0839 17.9379 10.168 18.0813 10.3364C18.4417 10.7593 18.6219 10.9707 18.7276 11.1918C18.972 11.7031 18.972 12.2976 18.7276 12.8089C18.6219 13.03 18.4417 13.2415 18.0813 13.6644C17.9379 13.8327 17.8662 13.9169 17.8059 14.0067C17.6678 14.2128 17.572 14.4442 17.524 14.6875C17.503 14.7937 17.4942 14.9039 17.4766 15.1243C17.4324 15.6782 17.4103 15.9551 17.3287 16.1862C17.1399 16.7206 16.7196 17.1409 16.1852 17.3297C15.9542 17.4113 15.6772 17.4334 15.1233 17.4776C14.9029 17.4952 14.7927 17.504 14.6865 17.5249C14.4432 17.573 14.2118 17.6688 14.0058 17.8069C13.9159 17.8672 13.8317 17.9389 13.6634 18.0823C13.2405 18.4427 13.0291 18.6229 12.808 18.7286C12.2966 18.973 11.7022 18.973 11.1908 18.7286C10.9697 18.6229 10.7583 18.4427 10.3354 18.0823C10.1671 17.9389 10.0829 17.8672 9.99303 17.8069C9.787 17.6688 9.55561 17.573 9.31227 17.5249C9.20612 17.504 9.0959 17.4952 8.87545 17.4776C8.32157 17.4334 8.04464 17.4113 7.81359 17.3297C7.27919 17.1409 6.85885 16.7206 6.67009 16.1862C6.58848 15.9551 6.56638 15.6782 6.52218 15.1243C6.50459 14.9039 6.4958 14.7937 6.47484 14.6875C6.4268 14.4442 6.33095 14.2128 6.19286 14.0067C6.13262 13.9169 6.0609 13.8327 5.91746 13.6644C5.55706 13.2415 5.37686 13.03 5.27119 12.8089C5.02679 12.2976 5.02679 11.7031 5.27119 11.1918C5.37686 10.9707 5.55706 10.7593 5.91746 10.3364C6.0609 10.168 6.13262 10.0839 6.19286 9.99401C6.33095 9.78797 6.4268 9.55659 6.47484 9.31325C6.4958 9.2071 6.50459 9.09687 6.52218 8.87643C6.56638 8.32255 6.58848 8.04561 6.67009 7.81456C6.85885 7.28017 7.27919 6.85982 7.81359 6.67107C8.04464 6.58946 8.32157 6.56736 8.87545 6.52316C9.0959 6.50557 9.20612 6.49677 9.31227 6.47582C9.55561 6.42777 9.787 6.33193 9.99303 6.19384C10.0829 6.13359 10.1671 6.06187 10.3354 5.91844Z" stroke="white" stroke-width="1.5"/>
<path d="M9.375 12.375L10.875 13.875L14.625 10.125" stroke="white" stroke-width="1.5" stroke-linecap="round" stroke-linejoin="round"/>
</svg>
