<svg width="24" height="24" viewBox="0 0 24 24" fill="none" xmlns="http://www.w3.org/2000/svg">
<path d="M15 6C16.6313 6.00908 17.5147 6.08142 18.091 6.65771C18.75 7.31672 18.75 8.37738 18.75 10.4987V14.9987C18.75 17.12 18.75 18.1807 18.091 18.8397C17.432 19.4987 16.3713 19.4987 14.25 19.4987H9.75C7.62868 19.4987 6.56802 19.4987 5.90901 18.8397C5.25 18.1807 5.25 17.12 5.25 14.9987V10.4987C5.25 8.37738 5.25 7.31672 5.90901 6.65771C6.4853 6.08142 7.36873 6.00908 9 6" stroke="#026939" stroke-width="1.5"/>
<path d="M9.75 13.05L11.0357 14.25L14.25 11.25" stroke="#026939" stroke-width="1.5" stroke-linecap="round" stroke-linejoin="round"/>
<path d="M9 5.625C9 5.00368 9.50368 4.5 10.125 4.5H13.875C14.4963 4.5 15 5.00368 15 5.625V6.375C15 6.99632 14.4963 7.5 13.875 7.5H10.125C9.50368 7.5 9 6.99632 9 6.375V5.625Z" stroke="#026939" stroke-width="1.5"/>
</svg>
