<svg width="24" height="24" viewBox="0 0 24 24" fill="none" xmlns="http://www.w3.org/2000/svg">
<path d="M4.875 7.875C4.875 6.46079 4.875 5.75368 5.31434 5.31434C5.75368 4.875 6.46079 4.875 7.875 4.875C9.28921 4.875 9.99632 4.875 10.4357 5.31434C10.875 5.75368 10.875 6.46079 10.875 7.875V16.125C10.875 17.5392 10.875 18.2463 10.4357 18.6857C9.99632 19.125 9.28921 19.125 7.875 19.125C6.46079 19.125 5.75368 19.125 5.31434 18.6857C4.875 18.2463 4.875 17.5392 4.875 16.125V7.875Z" stroke="white" stroke-width="1.5"/>
<path d="M13.125 14.625C13.125 13.2108 13.125 12.5037 13.5643 12.0643C14.0037 11.625 14.7108 11.625 16.125 11.625C17.5392 11.625 18.2463 11.625 18.6857 12.0643C19.125 12.5037 19.125 13.2108 19.125 14.625V16.125C19.125 17.5392 19.125 18.2463 18.6857 18.6857C18.2463 19.125 17.5392 19.125 16.125 19.125C14.7108 19.125 14.0037 19.125 13.5643 18.6857C13.125 18.2463 13.125 17.5392 13.125 16.125V14.625Z" stroke="white" stroke-width="1.5"/>
<path d="M13.125 7.125C13.125 6.42609 13.125 6.07663 13.2392 5.80097C13.3914 5.43343 13.6834 5.14142 14.051 4.98918C14.3266 4.875 14.6761 4.875 15.375 4.875H16.875C17.5739 4.875 17.9234 4.875 18.199 4.98918C18.5666 5.14142 18.8586 5.43343 19.0108 5.80097C19.125 6.07663 19.125 6.42609 19.125 7.125C19.125 7.82391 19.125 8.17337 19.0108 8.44903C18.8586 8.81657 18.5666 9.10858 18.199 9.26082C17.9234 9.375 17.5739 9.375 16.875 9.375H15.375C14.6761 9.375 14.3266 9.375 14.051 9.26082C13.6834 9.10858 13.3914 8.81657 13.2392 8.44903C13.125 8.17337 13.125 7.82391 13.125 7.125Z" stroke="white" stroke-width="1.5"/>
</svg>
