<svg width="18" height="18" viewBox="0 0 18 18" fill="none" xmlns="http://www.w3.org/2000/svg">
<path d="M1.875 4.875C1.875 3.46079 1.875 2.75368 2.31434 2.31434C2.75368 1.875 3.46079 1.875 4.875 1.875C6.28921 1.875 6.99632 1.875 7.43566 2.31434C7.875 2.75368 7.875 3.46079 7.875 4.875V13.125C7.875 14.5392 7.875 15.2463 7.43566 15.6857C6.99632 16.125 6.28921 16.125 4.875 16.125C3.46079 16.125 2.75368 16.125 2.31434 15.6857C1.875 15.2463 1.875 14.5392 1.875 13.125V4.875Z" stroke="#026939" stroke-width="1.5"/>
<path d="M10.125 11.625C10.125 10.2108 10.125 9.50368 10.5643 9.06434C11.0037 8.625 11.7108 8.625 13.125 8.625C14.5392 8.625 15.2463 8.625 15.6857 9.06434C16.125 9.50368 16.125 10.2108 16.125 11.625V13.125C16.125 14.5392 16.125 15.2463 15.6857 15.6857C15.2463 16.125 14.5392 16.125 13.125 16.125C11.7108 16.125 11.0037 16.125 10.5643 15.6857C10.125 15.2463 10.125 14.5392 10.125 13.125V11.625Z" stroke="#026939" stroke-width="1.5"/>
<path d="M10.125 4.125C10.125 3.42609 10.125 3.07663 10.2392 2.80097C10.3914 2.43343 10.6834 2.14142 11.051 1.98918C11.3266 1.875 11.6761 1.875 12.375 1.875H13.875C14.5739 1.875 14.9234 1.875 15.199 1.98918C15.5666 2.14142 15.8586 2.43343 16.0108 2.80097C16.125 3.07663 16.125 3.42609 16.125 4.125C16.125 4.82391 16.125 5.17337 16.0108 5.44903C15.8586 5.81657 15.5666 6.10858 15.199 6.26082C14.9234 6.375 14.5739 6.375 13.875 6.375H12.375C11.6761 6.375 11.3266 6.375 11.051 6.26082C10.6834 6.10858 10.3914 5.81657 10.2392 5.44903C10.125 5.17337 10.125 4.82391 10.125 4.125Z" stroke="#026939" stroke-width="1.5"/>
</svg>
