<svg width="236" height="58" viewBox="0 0 236 58" fill="none" xmlns="http://www.w3.org/2000/svg">
<mask id="mask0_4068_1658" style="mask-type:luminance" maskUnits="userSpaceOnUse" x="100" y="11" width="35" height="36">
<path d="M117.908 11.3481C117.908 11.3481 112.018 14.6975 112.018 21.1245C111.927 24.5644 114.011 27.6421 117.183 28.9094V36.6038L115.008 34.8839C115.371 31.8967 114.193 28.9094 111.927 26.918C107.668 23.116 100.871 24.2023 100.871 24.2023C100.418 28.0947 101.868 31.8967 104.768 34.5218C107.305 36.9659 111.111 37.5996 114.374 36.1512L117.093 38.3237V46.7423H118.543V38.3237L121.261 36.1512C124.524 37.6901 128.33 37.0564 130.868 34.5218C133.768 31.8967 135.218 28.0947 134.765 24.2023C134.765 24.2023 127.877 23.116 123.618 26.918C121.352 28.9094 120.265 31.8967 120.536 34.8839L118.452 36.6038V28.9094C121.624 27.6421 123.708 24.5644 123.618 21.1245C123.799 14.6975 117.999 11.3481 117.908 11.3481Z" fill="white"/>
</mask>
<g mask="url(#mask0_4068_1658)">
<path d="M135.943 11.3481H99.9648V46.8328H135.943V11.3481Z" fill="url(#paint0_linear_4068_1658)"/>
</g>
<mask id="mask1_4068_1658" style="mask-type:luminance" maskUnits="userSpaceOnUse" x="87" y="0" width="62" height="58">
<path d="M98.5172 29C98.5172 18.3184 107.217 9.53774 117.911 9.53774C128.605 9.53774 137.395 18.2279 137.395 28.9095C137.395 39.5911 128.695 48.3717 118.002 48.3717C107.217 48.3717 98.5172 39.6816 98.5172 29ZM105.223 0.485528L98.0641 5.01164C96.8859 5.82633 96.5234 7.36521 97.2484 8.542L99.5141 13.8828C97.7016 16.0553 96.2516 18.59 95.3453 21.3056L89.6359 22.2108C88.1859 22.2108 87.0078 23.3876 87.0078 24.836V33.3451C87.0078 34.7934 88.1859 35.8797 89.5453 35.8797L95.2547 36.7849C96.1609 39.5006 97.6109 42.0352 99.4234 44.2077L97.1578 49.5485C96.4328 50.7253 96.7953 52.3547 97.9734 53.0789L105.223 57.605C106.402 58.3292 108.033 58.0576 108.758 56.7903L112.564 52.3547C116.008 53.0789 119.633 53.0789 123.167 52.2642L126.973 56.6093C127.698 57.786 129.33 58.1481 130.508 57.424L137.667 52.8979C138.845 52.1737 139.208 50.5443 138.483 49.3675L136.217 44.0267C138.03 41.8541 139.389 39.41 140.295 36.6944L146.005 35.7892C147.455 35.7892 148.633 34.6124 148.633 33.164V24.6549C148.633 23.2066 147.455 22.0298 146.005 22.0298L140.295 21.1246C139.389 18.4994 138.03 15.9648 136.217 13.7923L138.483 8.45148C139.208 7.27469 138.936 5.64529 137.667 4.92111L130.508 0.395006C129.33 -0.329172 127.698 -0.0576046 126.973 1.20971L123.167 5.64529C121.445 5.2832 119.633 5.01164 117.82 5.01164C116.098 5.01164 114.286 5.19268 112.564 5.55477L108.758 1.11918C108.033 0.123439 106.492 -0.238649 105.223 0.485528Z" fill="white"/>
</mask>
<g mask="url(#mask1_4068_1658)">
<path d="M87.0078 -0.148247L148.814 -0.23877V58.2385L87.0984 58.3291L87.0078 -0.148247Z" fill="url(#paint1_linear_4068_1658)"/>
</g>
<path fill-rule="evenodd" clip-rule="evenodd" d="M7.70938 30.1762L5.80625 24.6544L3.8125 30.1762H7.70938ZM4.99063 22.7534H6.89375L11.425 35.336H9.52188L8.25313 31.5341H3.26875L1.90938 35.336H0.1875L4.99063 22.7534Z" fill="#007934"/>
<path fill-rule="evenodd" clip-rule="evenodd" d="M19.7629 28.5468C20.3973 28.5468 21.1223 28.4563 21.666 28.0942C22.2098 27.6416 22.391 27.008 22.3004 26.3743C22.391 25.6501 22.0285 24.9259 21.3035 24.5639C20.8504 24.3828 20.3973 24.2923 19.9441 24.2923H15.7754V28.6374H19.7629V28.5468ZM14.0535 22.7534H19.8535C20.6691 22.7534 21.4848 22.8439 22.2098 23.206C23.3879 23.7492 24.0223 24.926 23.9316 26.1933C23.9316 26.8269 23.7504 27.4606 23.4785 28.0037C23.116 28.4563 22.6629 28.9089 22.2098 29.1805C22.6629 29.3615 23.0254 29.6331 23.2973 29.9952C23.5691 30.4478 23.7504 30.9909 23.7504 31.6246L23.841 33.3445C23.841 33.7066 23.841 34.0687 23.9316 34.4308C23.9316 34.7929 24.2035 35.0644 24.4754 35.2455V35.517H22.391C22.3004 35.4265 22.3004 35.2455 22.2098 35.0644C22.2098 34.7023 22.1191 34.4308 22.1191 34.0687L22.0285 31.9867C22.0285 31.2625 21.7566 30.6288 21.1223 30.3573C20.6691 30.1762 20.1254 30.0857 19.5816 30.0857H15.6848V35.517H13.9629V22.7534H14.0535Z" fill="#007934"/>
<path fill-rule="evenodd" clip-rule="evenodd" d="M33.9008 30.1762L31.9977 24.6544L30.0039 30.1762H33.9008ZM31.0914 22.7534H32.9945L37.5258 35.336H35.6227L34.3539 31.5341H29.3695L28.1008 35.336H26.3789L31.0914 22.7534Z" fill="#007934"/>
<path fill-rule="evenodd" clip-rule="evenodd" d="M41.1516 31.2632C41.1516 31.8968 41.3329 32.44 41.6954 32.9831C42.2391 33.7978 43.236 34.1599 44.686 34.1599C45.3204 34.1599 45.8641 34.0694 46.4079 33.8883C47.3141 33.7073 47.9485 32.8926 47.9485 31.9873C48.0391 31.4442 47.7672 30.9011 47.3141 30.539C46.6797 30.1769 45.9547 29.9053 45.2297 29.8148L43.5079 29.4527C42.6922 29.3622 41.8766 29.0906 41.1516 28.638C40.336 28.0949 39.8829 27.1897 39.9735 26.2844C39.9735 25.1982 40.336 24.2024 41.1516 23.4783C42.0579 22.6636 43.236 22.3015 44.5047 22.392C45.6829 22.392 46.9516 22.6636 47.9485 23.3877C48.8547 24.1119 49.3985 25.2887 49.3079 26.4655H47.6766C47.6766 25.9224 47.4954 25.3792 47.1329 24.8361C46.4079 24.1119 45.5016 23.7498 44.5047 23.8403C43.6891 23.7498 42.9641 24.0214 42.3297 24.474C41.8766 24.8361 41.6954 25.3792 41.6954 25.9224C41.6954 26.4655 41.9672 27.0086 42.511 27.2802C43.236 27.5518 44.0516 27.8233 44.7766 28.0044L46.4985 28.3665C47.2235 28.457 47.8579 28.7285 48.4922 29.1812C49.3079 29.8148 49.761 30.8106 49.6704 31.8063C49.761 32.9831 49.2172 34.1599 48.1297 34.7935C47.0422 35.4272 45.8641 35.6988 44.5954 35.6988C43.236 35.7893 41.9672 35.3367 40.8797 34.522C39.9735 33.7073 39.5204 32.5305 39.611 31.2632H41.1516Z" fill="#007934"/>
<path fill-rule="evenodd" clip-rule="evenodd" d="M61.7215 23.6595C62.5371 24.3837 63.0809 25.3794 63.1715 26.5562H61.5402C61.359 25.832 60.9965 25.1078 60.4528 24.6552C59.7278 24.1121 58.9121 23.9311 58.0965 23.9311C56.9184 23.9311 55.8309 24.3837 55.1059 25.1984C54.2902 26.3752 53.8371 27.733 53.9277 29.1813C53.8371 30.4486 54.1996 31.716 54.9246 32.8022C55.6496 33.7074 56.8277 34.2506 58.0059 34.1601C59.184 34.2506 60.2715 33.7074 60.9059 32.7117C61.2684 32.078 61.5403 31.4444 61.7215 30.7202H63.3528C63.2621 31.9875 62.7184 33.1643 61.9028 34.0695C60.8153 35.1558 59.3653 35.6989 57.8246 35.6989C56.4652 35.6989 55.1965 35.2463 54.109 34.3411C52.8402 33.1643 52.1152 31.3539 52.1152 28.9098C52.0246 27.2804 52.5684 25.651 53.5652 24.3837C54.6527 23.1164 56.284 22.3922 58.0059 22.4827C59.3653 22.3017 60.634 22.7543 61.7215 23.6595Z" fill="#00853F"/>
<path fill-rule="evenodd" clip-rule="evenodd" d="M76.5828 24.564C77.4891 25.8313 77.8516 27.2797 77.8516 28.8185C77.9422 30.5385 77.3985 32.1679 76.4016 33.5257C74.136 36.1508 70.0578 36.5129 67.4297 34.1593C67.2484 34.0688 67.1578 33.8878 67.0672 33.7972C66.0703 32.4394 65.5266 30.81 65.6172 29.0901C65.6172 27.5512 65.9797 26.0123 66.886 24.745C67.9735 23.2062 69.786 22.3009 71.6891 22.3915C73.8641 22.482 75.586 23.1156 76.5828 24.564ZM75.1328 32.6205C75.8578 31.5342 76.1297 30.1764 76.1297 28.9091C76.2203 27.6417 75.7672 26.3744 74.9516 25.3787C74.136 24.4735 72.9578 23.9303 71.7797 24.0209C70.6016 24.0209 69.4235 24.4735 68.6078 25.3787C67.7016 26.465 67.2485 27.9133 67.3391 29.3617C67.3391 30.629 67.7016 31.8963 68.4266 32.892C69.2422 33.8878 70.511 34.4309 71.8703 34.3404C73.1391 34.3404 74.4078 33.7067 75.1328 32.6205Z" fill="#007934"/>
<path d="M235.268 16.5078H233.365V35.3364H235.268V16.5078Z" fill="#007934"/>
<path d="M224.122 16.5078H222.219V35.3364H224.122V16.5078Z" fill="#007934"/>
<path d="M217.596 33.5259H157.965V35.4268H217.596V33.5259Z" fill="#007934"/>
<path d="M218.864 27.2803H216.961V35.4273H218.864V27.2803Z" fill="#007934"/>
<path d="M214.425 28.6377H212.521V35.4269H214.425V28.6377Z" fill="#007934"/>
<path d="M209.805 29.9951H207.992V35.4264H209.805V29.9951Z" fill="#007934"/>
<path fill-rule="evenodd" clip-rule="evenodd" d="M187.871 28.6377L189.684 29.1808V35.4269H187.871V28.6377Z" fill="#007934"/>
<path fill-rule="evenodd" clip-rule="evenodd" d="M189.413 30.2672H169.566L169.657 29.0904L184.248 21.8486L184.52 22.8444L176.454 28.0041L175.548 28.3662H188.326C188.779 28.2757 189.232 28.4568 189.595 28.7283C189.957 29.362 189.413 30.2672 189.413 30.2672Z" fill="#007934"/>
<path fill-rule="evenodd" clip-rule="evenodd" d="M157.875 35.3367C157.875 35.3367 157.06 30.9917 160.503 28.4571C163.947 25.9224 165.669 26.194 165.669 26.194V38.4145C165.669 38.4145 165.578 40.9491 162.135 40.9491C158.691 40.9491 158.147 39.6818 158.147 39.6818L158.872 39.2292C159.869 39.3197 160.957 39.4102 161.953 39.4102C163.222 39.4102 163.222 37.8714 163.222 37.8714V29.1812C163.222 29.1812 162.044 29.4528 160.957 31.2632C159.688 33.3453 160.141 33.7979 160.141 33.7979L157.875 35.3367Z" fill="#007934"/>
<path d="M230.013 28.8188H228.109V40.9488H230.013V28.8188Z" fill="#007934"/>
<path d="M229.287 39.229H226.387V41.0394H229.287V39.229Z" fill="#007934"/>
<path d="M230.828 14.0637V12.8869H232.369C232.097 12.6153 231.916 12.1627 231.916 11.8006C231.916 11.2575 232.188 10.7143 232.641 10.4428C233.094 10.1712 233.638 9.99015 234.181 10.0807C234.816 10.0807 235.359 10.5333 235.813 11.529L234.634 11.6196C234.544 11.529 234.544 11.4385 234.453 11.348C234.363 11.348 234.272 11.348 234.272 11.2575C233.547 11.2575 233.184 11.529 233.184 11.8911C233.184 12.0722 233.275 12.2532 233.456 12.4343C233.637 12.7058 233.819 12.8869 233.819 12.9774H235.631V14.1542L230.828 14.0637Z" fill="#007934"/>
<defs>
<linearGradient id="paint0_linear_4068_1658" x1="100.478" y1="29.0484" x2="136.441" y2="29.0484" gradientUnits="userSpaceOnUse">
<stop stop-color="#39B54A"/>
<stop offset="0.26" stop-color="#289D45"/>
<stop offset="0.75" stop-color="#0B763B"/>
<stop offset="1" stop-color="#006738"/>
</linearGradient>
<linearGradient id="paint1_linear_4068_1658" x1="117.937" y1="57.9699" x2="117.868" y2="1.03368" gradientUnits="userSpaceOnUse">
<stop stop-color="#1B75BC"/>
<stop offset="0.45" stop-color="#175389"/>
<stop offset="0.81" stop-color="#143D68"/>
<stop offset="1" stop-color="#13355B"/>
</linearGradient>
</defs>
</svg>
