<svg width="24" height="24" viewBox="0 0 24 24" fill="none" xmlns="http://www.w3.org/2000/svg">
<g clip-path="url(#clip0_4366_8769)">
<path d="M10.5 19.5C7.67157 19.5 6.25736 19.5 5.37868 18.6213C4.5 17.7426 4.5 17.0784 4.5 14.25" stroke="white" stroke-width="1.5" stroke-linecap="round"/>
<path d="M19.5 14.25C19.5 17.0784 19.5 17.7426 18.6213 18.6213C17.7426 19.5 16.3284 19.5 13.5 19.5" stroke="white" stroke-width="1.5" stroke-linecap="round"/>
<path d="M13.5 4.5C16.3284 4.5 17.7426 4.5 18.6213 5.37868C19.5 6.25736 19.5 6.92157 19.5 9.75" stroke="white" stroke-width="1.5" stroke-linecap="round"/>
<path d="M10.5 4.5C7.67157 4.5 6.25736 4.5 5.37868 5.37868C4.5 6.25736 4.5 6.92157 4.5 9.75" stroke="white" stroke-width="1.5" stroke-linecap="round"/>
<path d="M7.41932 13.5448C6.97311 13.0273 6.75 12.7685 6.75 12C6.75 11.2315 6.97311 10.9727 7.41932 10.4552C8.31028 9.42167 9.80451 8.25 12 8.25C14.1955 8.25 15.6897 9.42167 16.5807 10.4552C17.0269 10.9727 17.25 11.2315 17.25 12C17.25 12.7685 17.0269 13.0273 16.5807 13.5448C15.6897 14.5783 14.1955 15.75 12 15.75C9.80451 15.75 8.31028 14.5783 7.41932 13.5448Z" stroke="white" stroke-width="1.5"/>
<circle cx="12" cy="12" r="1.5" stroke="white" stroke-width="1.5"/>
</g>
<defs>
<clipPath id="clip0_4366_8769">
<rect x="3" y="3" width="18" height="18" rx="5" fill="white"/>
</clipPath>
</defs>
</svg>
