<svg width="24" height="24" viewBox="0 0 24 24" fill="none" xmlns="http://www.w3.org/2000/svg">
<g clip-path="url(#clip0_4270_13594)">
<path d="M4.5 12C4.5 8.46447 4.5 6.6967 5.59835 5.59835C6.6967 4.5 8.46447 4.5 12 4.5C15.5355 4.5 17.3033 4.5 18.4017 5.59835C19.5 6.6967 19.5 8.46447 19.5 12C19.5 15.5355 19.5 17.3033 18.4017 18.4017C17.3033 19.5 15.5355 19.5 12 19.5C8.46447 19.5 6.6967 19.5 5.59835 18.4017C4.5 17.3033 4.5 15.5355 4.5 12Z" stroke="#026939" stroke-width="1.5"/>
<path d="M7.5 14.85L8.35714 15.75L10.5 13.5" stroke="#026939" stroke-width="1.5" stroke-linecap="round" stroke-linejoin="round"/>
<path d="M7.5 9.6L8.35714 10.5L10.5 8.25" stroke="#026939" stroke-width="1.5" stroke-linecap="round" stroke-linejoin="round"/>
<path d="M12.75 9.75L16.5 9.75" stroke="#026939" stroke-width="1.5" stroke-linecap="round"/>
<path d="M12.75 15L16.5 15" stroke="#026939" stroke-width="1.5" stroke-linecap="round"/>
</g>
<defs>
<clipPath id="clip0_4270_13594">
<rect width="18" height="18" fill="white" transform="translate(3 3)"/>
</clipPath>
</defs>
</svg>

